<svg width="63" height="75" viewBox="0 0 63 75" fill="none" xmlns="http://www.w3.org/2000/svg">
<g clip-path="url(#clip0_105_2)">
<path d="M26.4139 55.3196C26.6139 54.5592 26.514 53.3154 26.5128 52.511L26.5439 34.8908C26.5348 29.685 22.5843 28.1578 18.9385 25.6424C15.5719 23.3197 15.2855 22.4596 15.2872 18.6839L15.2929 0C16.5271 0.0820904 17.7882 0.0334793 19.0259 0.0335421L25.5533 0.0284573C25.4974 4.44238 25.5965 8.85708 25.5442 13.2702C25.4948 17.4484 25.4727 17.5468 29.0303 19.9867C29.7879 20.5065 30.5234 21.0599 31.3488 21.4663C31.9954 21.1813 32.5861 20.7132 33.1658 20.3106C36.3147 18.1256 37.1199 17.6359 37.119 13.8516L37.117 4.28751C37.1172 2.86891 37.0995 1.44781 37.1341 0.0296084L43.7595 0.0321404C44.9659 0.0326217 46.1961 0.0885981 47.3998 0.0281236L47.4035 17.1697C47.4041 21.9068 47.7663 23.0535 43.8236 25.6129L40.8878 27.5257C35.6304 31.0093 36.1397 33.2013 36.1447 38.7283L36.1428 53.7467C36.1068 57.3513 38.4607 54.7869 40.1199 53.6052L59.529 40.0744C60.5876 39.3364 61.6195 38.5638 62.7028 37.862C62.5959 38.3676 62.6542 38.9677 62.655 39.4843L62.6564 47.233C62.6564 48.2919 62.6239 49.3597 62.6946 50.4158C59.9081 52.1603 57.2101 54.057 54.4871 55.9026C51.0146 58.263 47.4638 60.5037 44.0167 62.9036C41.7746 64.4645 34.4062 70.0398 31.9552 70.3292C29.5405 70.6145 27.871 69.4878 25.9779 68.1792L4.44767 53.4853C2.97185 52.4614 1.42617 51.4972 0.0290507 50.3658C0.163385 46.641 0.230347 41.7142 0 38.0139C0.749349 38.3726 1.43235 38.9338 2.11721 39.4069L24.0251 54.7762C24.4912 55.0916 25.0404 55.5687 25.5685 55.7369C25.8947 55.6457 26.1427 55.5251 26.4139 55.3196Z" fill="#050505"/>
<path d="M0.118723 9.89996C0.818829 9.87799 1.521 9.88343 2.22131 9.8782C4.85299 9.91816 7.50693 9.78612 10.1338 9.92967C10.0858 10.9402 10.1072 11.957 10.1072 12.9687L10.1044 21.0026C10.1019 23.2833 10.2249 24.897 11.8163 26.7481C12.8877 27.994 16.1443 30.178 17.5606 31.1382C21.1845 33.5953 21.1686 32.6899 21.1614 36.9051L21.16 42.9111C21.16 44.0936 21.0716 45.3502 21.2475 46.5191C20.8091 46.184 20.3552 45.8708 19.9042 45.5536C18.2705 44.2217 16.038 42.8048 14.2898 41.5955L6.35293 36.036L3.93552 34.4049C0.258209 31.933 0.0352796 31.0834 0.0509383 27.0002L0.051762 14.9824C0.051762 13.2899 0.00499141 11.5887 0.118723 9.89996Z" fill="#050505"/>
<path d="M41.4358 46.337C41.5207 45.1589 41.4902 43.971 41.4902 42.7903L41.4893 37.5148C41.4883 33.3662 40.9685 33.8703 44.413 31.5674C45.7238 30.6913 46.9905 29.7609 48.2648 28.8318C50.6869 27.0655 52.2847 25.9048 52.5973 22.5143C52.7366 21.0032 52.4889 10.2639 52.7094 9.9255C52.7448 9.87109 52.8279 9.88448 52.887 9.87758C56.1421 9.92613 59.4098 9.90792 62.6648 9.85205C62.5995 14.5685 62.6574 19.2934 62.657 24.0106L62.6588 27.4579C62.6782 32.6208 60.7177 32.86 56.8274 35.5847C53.6652 37.7994 50.4673 39.9704 47.3339 42.226C45.4308 43.5757 43.3809 45.071 41.4358 46.337Z" fill="#050505"/>
<path d="M48.7041 66.3377C49.4571 65.7072 50.2918 65.1725 51.0961 64.6127L60.5119 58.1628C61.2118 57.6832 61.9121 57.1759 62.6627 56.7823L62.7076 56.7998C62.7573 57.0028 62.6604 60.2744 62.658 60.7113L62.6561 69.5722C62.6563 71.3642 62.6032 73.1726 62.6806 74.9619C61.0787 74.8859 59.4578 74.9366 57.8532 74.9366L48.8664 74.932L48.7568 74.9293C48.6064 74.7535 48.7082 72.6834 48.7084 72.3683L48.7041 66.3377Z" fill="#050505"/>
<path d="M0.0297852 74.9249C0.0959224 73.2655 0.0532744 71.5931 0.0532744 69.9319L0.0512136 61.1547C0.0505955 59.7092 0.0172175 58.2565 0.0775858 56.8125C0.620281 57.0851 1.13887 57.5321 1.63665 57.8851L4.95938 60.2384C7.97449 62.3437 11.0807 64.3232 14.0476 66.4978L14.0504 72.6938C14.0506 73.1152 14.2278 74.7564 14.0768 75C9.80903 74.6005 4.42657 75.0015 0.0297852 74.9249Z" fill="#050505"/>
</g>
<defs>
<clipPath id="clip0_105_2">
<rect width="63" height="75" fill="white"/>
</clipPath>
</defs>
</svg>
